<svg width="90" height="90" viewBox="0 0 90 90" fill="none" xmlns="http://www.w3.org/2000/svg">
    <rect x=".5" y=".5" width="89" height="89" rx="15.5" fill="#1D100D"/>
    <rect x=".5" y=".5" width="89" height="89" rx="15.5" stroke="#F29982"/>
    <path d="M45 16a29 29 0 1 0 20.506 8.494A28.804 28.804 0 0 0 45 16.001zm0 1.934A26.898 26.898 0 0 1 58.96 21.8h-1.45c-1.975 0-3.672.346-5.188 1.059C49.685 24.098 47.29 24.7 45 24.7c-2.436 0-4.22-.535-5.522-.926-2.922-.876-6.274-1.007-8.011-1.007h-1.914A26.87 26.87 0 0 1 45 17.934zm0 54.133a26.893 26.893 0 0 1-19.879-8.7h3.502c1.685 0 3.114.286 4.366.875 2.9 1.362 5.564 2.025 8.145 2.025 2.72 0 4.74-.606 6.077-1.008 1.962-.588 4.68-.926 7.456-.926h9.273A26.883 26.883 0 0 1 45 72.067zM52.734 36.3c2.333 0 3.562-1.229 4.55-2.216.922-.922 1.65-1.65 3.183-1.65h8.518a26.75 26.75 0 0 1 2.652 7.733h-5.37a.966.966 0 1 0 0 1.933h5.645c.103.963.154 1.931.155 2.9a27.063 27.063 0 0 1-1.77 9.667H57.517c-3.715 0-7.986-1.325-12.024-3.73-2.37-1.413-5.598-2.07-10.16-2.07a.967.967 0 0 0 0 1.933c4.198 0 7.113.571 9.171 1.797 4.333 2.581 8.954 4.003 13.013 4.003H69.47a26.948 26.948 0 0 1-3.737 5.8H54.667c-1.738 0-5.09.13-8.011 1.007-1.303.391-3.087.926-5.522.926-2.29 0-4.686-.602-7.323-1.841-1.516-.712-3.212-1.059-5.188-1.059H23.49A26.769 26.769 0 0 1 18.555 50.8h10.979a.966.966 0 1 0 0-1.933H18.208A27.425 27.425 0 0 1 17.933 45a27.112 27.112 0 0 1 1.423-8.7h10.177c3.069 0 4.77-1.397 6.138-2.519.917-.753 1.641-1.347 2.561-1.347H42.1a.967.967 0 0 0 0-1.934h-3.867c-1.611 0-2.718.908-3.788 1.787-1.246 1.022-2.534 2.08-4.912 2.08h-9.437a27.033 27.033 0 0 1 7.002-9.667h4.369c2.776 0 5.493.338 7.455.926 1.338.401 3.359 1.008 6.078 1.008 2.58 0 5.244-.663 8.144-2.026 1.253-.588 2.681-.875 4.367-.875h4.236a27.434 27.434 0 0 1 6.119 6.767h-7.4c-2.333 0-3.562 1.23-4.55 2.217-.921.922-1.65 1.65-3.182 1.65a.967.967 0 0 0 0 1.933z" fill="#F29982"/>
    <path d="M46.934 38.717a1.45 1.45 0 1 1-2.9 0 1.45 1.45 0 0 1 2.9 0zM35.334 41.133a.967.967 0 1 1-1.934 0 .967.967 0 0 1 1.934 0zM58.533 42.583a1.45 1.45 0 1 1-2.9 0 1.45 1.45 0 0 1 2.9 0z" fill="#F29982"/>
</svg>
