<svg width="90" height="90" viewBox="0 0 90 90" fill="none" xmlns="http://www.w3.org/2000/svg">
    <rect x=".5" y=".5" width="89" height="89" rx="15.5" fill="#EEE"/>
    <rect x=".5" y=".5" width="89" height="89" rx="15.5" stroke="#425464"/>
    <path d="M73.71 60.122c-.34-.7-.925-1.137-1.567-1.6-3.61-2.607-7.369-5.049-9.986-8.524-.987-1.312-1.965-2.63-2.948-3.945-.393-.526-.771-1.069-1.192-1.58-1.026-1.24-2.375-2.173-3.947-2.791V26.62c0-1.423-.111-2.71-.753-4.06-1.199-2.52-3.45-5.158-6.39-6.23-2.974-1.082-5.79.67-7.676 2.611-1.73 1.782-3.285 4.116-3.314 6.526-.04 3.326 0 6.655 0 9.982v6.23c-1.37.536-2.596 1.313-3.553 2.345-.452.486-.832 1.018-1.224 1.542l-3.062 4.099a25.527 25.527 0 0 1-5.475 5.417c-1.277.928-2.56 1.849-3.839 2.773-.499.36-1.01.71-1.497 1.082-1.053.803-1.526 2.07-1.17 3.263.382 1.273 1.66 2.214 3.135 2.35.335.03.672.02 1.008.02h18.982l-1.967 3.84-1.505 2.939c-.409.797-.929 1.773.144 2.407.534.316 1.254.233 1.867.233h14.855c.198 0 .4.01.597 0 1.049-.048 1.766-.885 1.44-1.784a.767.767 0 0 0-.07-.141l-.013-.032-3.823-7.463h18.239c1.345 0 2.649.057 3.755-.78 1.184-.898 1.561-2.408.95-3.668zM37.796 24.108c.776-2.48 2.904-5.117 5.536-6.303 2.707-1.222 5.291.948 6.817 2.76 1.261 1.498 2.288 3.26 2.288 5.16v37.407H37.568V27.31c0-1.066-.098-2.165.227-3.202zM21.778 63.132c-.843 0-1.923.147-2.747-.078-1.356-.37-1.844-1.877-.918-2.828.356-.366.865-.66 1.285-.963L23.5 56.3c2.163-1.563 4.065-3.353 5.627-5.403.972-1.275 1.918-2.565 2.877-3.848.376-.503.747-1.009 1.128-1.51a7.771 7.771 0 0 1 2.803-2.267v19.86H21.78zm15.052 9.422c-.099.05-.006-.019 0 0zm15.395-.002H37.4c-.09 0-.293-.03-.438-.024.099-.177.176-.375.264-.549l1.374-2.682 2.422-4.726h7.962l4.09 7.985c-.027 0-.053-.003-.073-.005-.253-.02-.521 0-.775 0zM72.24 62.025c-.547 1.206-1.89 1.107-3.083 1.107H54.07v-19.86a7.748 7.748 0 0 1 2.787 2.245c.276.362.543.728.815 1.091l2.9 3.881c1.57 2.1 3.431 3.991 5.635 5.595 1.119.814 2.244 1.622 3.366 2.432 1.154.833 3.386 1.925 2.668 3.51z" fill="#425464"/>
    <path d="M41.4 25.531c2.352-.992 4.856-.991 7.209 0 .943.398 1.773-.842.824-1.242-2.919-1.231-5.94-1.231-8.858 0-.947.399-.12 1.64.824 1.242zM47.429 39.577v16.137c0 .926 1.632.928 1.632 0V39.577c0-.926-1.632-.928-1.632 0zM40.946 39.577v16.137c0 .926 1.633.928 1.633 0V39.577c0-.926-1.633-.928-1.633 0z" fill="#1B1C1D"/>
</svg>
