<svg width="90" height="90" viewBox="0 0 90 90" fill="none" xmlns="http://www.w3.org/2000/svg">
    <rect x=".5" y=".5" width="89" height="89" rx="15.5" fill="#131315"/>
    <rect x=".5" y=".5" width="89" height="89" rx="15.5" stroke="#E9542F"/>
    <path d="M45 16c-15.99 0-29 13.01-29 29s13.01 29 29 29 29-13.01 29-29-13.01-29-29-29zm0 56.188c-14.992 0-27.188-12.196-27.188-27.188 0-14.992 12.196-27.188 27.188-27.188 14.992 0 27.188 12.196 27.188 27.188 0 14.992-12.196 27.188-27.188 27.188z" fill="#E9542F"/>
    <path d="M61.313 37.297c0 1.813-2.72 1.813-2.72 0 0-1.812 2.72-1.812 2.72 0zM34.125 60.406c0 2.417-3.625 2.417-3.625 0 0-2.418 3.625-2.418 3.625 0zM37.75 52.703c0 1.812-2.719 1.812-2.719 0 0-1.813 2.719-1.813 2.719 0zM53.156 43.64c0 1.813-2.719 1.813-2.719 0 0-1.812 2.719-1.812 2.719 0zM48.625 53.156c0 2.417-3.625 2.417-3.625 0 0-2.418 3.625-2.418 3.625 0zM47.72 64.03a3.624 3.624 0 0 1-3.626 3.626 3.624 3.624 0 0 1-3.625-3.625 3.624 3.624 0 0 1 3.625-3.625 3.624 3.624 0 0 1 3.625 3.625zM66.75 46.36a3.173 3.173 0 1 1-6.345-.002 3.173 3.173 0 0 1 6.345.002zM61.313 57.688a4.53 4.53 0 0 1-4.532 4.53 4.53 4.53 0 0 1-4.531-4.53 4.53 4.53 0 0 1 4.531-4.532 4.53 4.53 0 0 1 4.532 4.532z" fill="#E9542F"/>
</svg>
