<svg width="1670" height="903" viewBox="0 0 1670 903" fill="none" xmlns="http://www.w3.org/2000/svg">
<path d="M128.29 830.9H147.35V885.1C133.45 896.81 114.19 902.77 94.7301 902.77C52.0501 902.77 20.6801 872.79 20.6801 831.69C20.6801 790.59 52.0501 760.61 95.1401 760.61C117.17 760.61 135.84 767.96 148.54 782.06L136.23 794.37C124.71 783.25 111.61 778.29 95.9301 778.29C63.7601 778.29 40.5301 800.73 40.5301 831.7C40.5301 862.67 63.7601 885.11 95.7301 885.11C107.44 885.11 118.36 882.53 128.29 876.18V830.91V830.9ZM184.09 841.22V762.2H203.94V840.43C203.94 871.2 218.04 885.1 243.05 885.1C268.06 885.1 282.36 871.2 282.36 840.43V762.2H301.62V841.22C301.62 881.52 279.58 902.77 242.85 902.77C206.12 902.77 184.08 881.52 184.08 841.22H184.09ZM577.63 901.17L547.65 858.48C544.87 858.68 541.89 858.88 538.91 858.88H504.56V901.17H484.71V762.19H538.91C575.05 762.19 596.89 780.46 596.89 810.64C596.89 832.08 585.77 847.57 566.31 854.52L599.27 901.18H577.63V901.17ZM577.03 810.65C577.03 790.79 563.73 779.48 538.31 779.48H504.56V842.02H538.31C563.72 842.02 577.03 830.5 577.03 810.65ZM629.04 762.2H687.61C732.28 762.2 762.66 790.39 762.66 831.69C762.66 872.99 732.28 901.18 687.61 901.18H629.04V762.2ZM686.42 883.91C720.77 883.91 742.81 862.86 742.81 831.69C742.81 800.52 720.77 779.47 686.42 779.47H648.89V883.91H686.42ZM793.05 762.2H812.9V901.18H793.05V762.2ZM876.24 850.55L906.22 782.45L936.2 850.55L943.15 866.43L958.44 901.18H979.29L916.15 762.19H896.49L833.55 901.17H854L869.29 866.42M1119.48 762.2V901.18H1103.2L1019.81 797.54V901.18H999.96V762.2H1016.24L1099.63 865.84V762.2H1119.48ZM1209.13 831.68C1209.13 790.98 1240.5 760.6 1283.18 760.6C1325.86 760.6 1356.84 790.78 1356.84 831.68C1356.84 872.58 1325.47 902.76 1283.18 902.76C1240.89 902.76 1209.12 872.38 1209.12 831.68H1209.13ZM1336.99 831.68C1336.99 800.9 1313.96 778.27 1283.18 778.27C1252.4 778.27 1228.98 800.9 1228.98 831.68C1228.98 862.46 1252.01 885.09 1283.18 885.09C1314.35 885.09 1336.99 862.46 1336.99 831.68ZM1506.75 762.2V901.18H1490.47L1407.08 797.54V901.18H1387.23V762.2H1403.51L1486.9 865.84V762.2H1506.75ZM1649.32 883.91V901.18H1548.46V762.2H1646.54V779.47H1568.31V822.16H1638V839.04H1568.31V883.91H1649.32ZM314.89 899.59L375.85 760.61H395.51L456.66 899.59H435.22L385.19 785.42L334.76 899.59H314.89Z" fill="white"/>
<path d="M834.506 17.316L1080 158.909V442.08L834.506 583.684L589 442.079V158.909L834.506 17.316Z" stroke="white" stroke-width="30"/>
<path d="M798.339 264.101L835.789 143.35L873.723 264.101L992.987 300.515L873.298 337.571L836.671 458.322L798.737 337.571L675.123 301.793L798.339 264.101Z" fill="white"/>
</svg>
