<svg width="519" height="44" viewBox="0 0 519 44" fill="none" xmlns="http://www.w3.org/2000/svg">
    <g clip-path="url(#dupwo1yr4a)">
        <path d="M33.47 21.756h5.928V38.53C35.075 42.155 29.085 44 23.032 44 9.757 44 0 34.72 0 22S9.757 0 23.16 0c6.852 0 12.658 2.275 16.609 6.639l-3.83 3.81c-3.582-3.442-7.657-4.977-12.534-4.977-10.006 0-17.231 6.946-17.231 16.531 0 9.586 7.225 16.531 17.169 16.531 3.642 0 7.039-.798 10.127-2.764V21.756zm17.356 3.194V.492H57v24.213c0 9.524 4.385 13.826 12.164 13.826s12.227-4.302 12.227-13.826V.492h5.99V24.95c0 12.473-6.855 19.05-18.28 19.05-11.423 0-18.278-6.577-18.278-19.05h.003zm122.4 18.558-9.325-13.213c-.864.062-1.791.124-2.718.124h-10.684v13.089h-6.174V.492h16.858c11.241 0 18.033 5.655 18.033 14.996 0 6.636-3.458 11.43-9.511 13.581l10.252 14.442h-6.731v-.003zm-.187-28.02c0-6.147-4.136-9.648-12.043-9.648h-10.497v19.357h10.497c7.904 0 12.043-3.565 12.043-9.71zM189.219.492h18.217c13.894 0 23.343 8.725 23.343 21.508s-9.449 21.508-23.343 21.508h-18.217V.492zm17.847 37.67c10.684 0 17.539-6.515 17.539-16.162 0-9.647-6.855-16.163-17.539-16.163h-11.673v32.326h11.673zM240.232.493h6.174v43.016h-6.174V.492zm25.874 27.348 9.325-21.077 9.325 21.078 2.161 4.914 4.756 10.756h6.485L278.52.492h-6.115l-19.577 43.016h6.361l4.756-10.756M341.762.492v43.016h-5.064L310.761 11.43v32.078h-6.174V.492h5.064l25.937 32.078V.492h6.174zM382.087 22c0-12.597 9.757-22 23.032-22s22.91 9.341 22.91 22-9.757 22-22.91 22c-13.154 0-23.035-9.403-23.035-22h.003zm39.768 0c0-9.527-7.163-16.53-16.736-16.53-9.574 0-16.858 7.003-16.858 16.53 0 9.527 7.163 16.531 16.858 16.531S421.855 31.527 421.855 22zM474.656.492v43.016h-5.063L443.656 11.43v32.078h-6.174V.492h5.063l25.937 32.078V.492h6.174zM519 38.162v5.346h-31.371V.492h30.506v5.345h-24.332V19.05h21.676v5.225h-21.676v13.888H519zM91.509 43.017 110.469 0h6.115l19.02 43.016h-6.669L113.374 7.679 97.689 43.016h-6.18z" fill="#303032"/>
    </g>
    <defs>
        <clipPath id="dupwo1yr4a">
            <path fill="#fff" d="M0 0h519v44H0z"/>
        </clipPath>
    </defs>
</svg>
