<svg width="3156" height="600" viewBox="0 0 3156 600" fill="none" xmlns="http://www.w3.org/2000/svg">
<g clip-path="url(#clip0_1019_1734)">
<path d="M259.796 17.3206L504.58 158.654V441.334L259.796 582.679L15 441.334V158.654L259.796 17.3206Z" stroke="white" stroke-width="30"/>
<path d="M223.728 263.662L261.075 143.112L298.906 263.662L417.845 300.015L298.482 337.009L261.955 457.559L224.124 337.009L100.848 301.29L223.728 263.662Z" fill="white"/>
<path d="M842.98 299.2H872.02V381.77C850.84 399.61 821.5 408.69 791.86 408.69C726.84 408.69 679.05 363.02 679.05 300.41C679.05 237.8 726.84 192.13 792.48 192.13C826.04 192.13 854.48 203.33 873.83 224.81L855.08 243.56C837.53 226.62 817.57 219.06 793.69 219.06C744.68 219.06 709.29 253.25 709.29 300.43C709.29 347.61 744.68 381.8 793.38 381.8C811.22 381.8 827.85 377.87 842.98 368.2V299.22V299.2ZM927.98 314.92V194.54H958.22V313.72C958.22 360.6 979.7 381.77 1017.8 381.77C1055.9 381.77 1077.69 360.59 1077.69 313.72V194.54H1107.03V314.92C1107.03 376.31 1073.45 408.69 1017.5 408.69C961.55 408.69 927.97 376.32 927.97 314.92H927.99H927.98ZM1527.5 406.26L1481.83 341.23C1477.59 341.53 1473.06 341.84 1468.52 341.84H1416.19V406.26H1385.95V194.54H1468.52C1523.58 194.54 1556.85 222.37 1556.85 268.35C1556.85 301.01 1539.91 324.61 1510.26 335.2L1560.47 406.28H1527.5V406.26ZM1526.58 268.35C1526.58 238.1 1506.32 220.87 1467.59 220.87H1416.18V316.14H1467.59C1506.3 316.14 1526.58 298.59 1526.58 268.35ZM1605.82 194.54H1695.05C1763.1 194.54 1809.38 237.48 1809.38 300.4C1809.38 363.32 1763.1 406.26 1695.05 406.26H1605.82V194.54ZM1693.24 379.95C1745.57 379.95 1779.14 347.88 1779.14 300.4C1779.14 252.92 1745.56 220.85 1693.24 220.85H1636.07V379.95H1693.24ZM1855.67 194.54H1885.91V406.26H1855.67V194.54ZM1982.41 329.15L2028.08 225.41L2073.75 329.15L2084.34 353.34L2107.63 406.28H2139.39L2043.2 194.54H2013.25L1917.37 406.26H1948.52L1971.81 353.32M2352.96 194.54V406.26H2328.16L2201.12 248.37V406.26H2170.88V194.54H2195.68L2322.72 352.43V194.54H2352.96ZM2485.11 300.4C2485.11 238.4 2532.9 192.12 2597.92 192.12C2662.94 192.12 2710.13 238.1 2710.13 300.4C2710.13 362.7 2662.34 408.68 2597.92 408.68C2533.5 408.68 2485.1 362.4 2485.1 300.4H2485.12H2485.11ZM2679.89 300.4C2679.89 253.51 2644.81 219.03 2597.92 219.03C2551.03 219.03 2515.35 253.5 2515.35 300.4C2515.35 347.3 2550.43 381.77 2597.92 381.77C2645.41 381.77 2679.89 347.3 2679.89 300.4ZM2938.51 194.54V406.26H2913.71L2786.67 248.37V406.26H2756.43V194.54H2781.23L2908.27 352.43V194.54H2938.51ZM3155.7 379.95V406.26H3002.05V194.54H3151.47V220.85H3032.29V285.88H3138.46V311.59H3032.29V379.95H3155.7ZM1127.25 403.84L1220.12 192.12H1250.07L1343.23 403.84H1310.57L1234.35 229.91L1157.52 403.84H1127.25Z" fill="white"/>
</g>
<defs>
<clipPath id="clip0_1019_1734">
<rect width="3156" height="600" fill="white"/>
</clipPath>
</defs>
</svg>
