<svg width="1669" height="143" viewBox="0 0 1669 143" fill="none" xmlns="http://www.w3.org/2000/svg">
<g clip-path="url(#clip0_1019_1736)">
<path d="M107.61 70.29H126.67V124.49C112.77 136.2 93.51 142.16 74.05 142.16C31.37 142.16 0 112.18 0 71.08C0 29.98 31.37 0 74.46 0C96.49 0 115.16 7.35 127.86 21.45L115.55 33.76C104.03 22.64 90.93 17.68 75.25 17.68C43.08 17.68 19.85 40.12 19.85 71.09C19.85 102.06 43.08 124.5 75.05 124.5C86.76 124.5 97.68 121.92 107.61 115.57V70.3V70.29ZM163.41 80.61V1.59H183.26V79.82C183.26 110.59 197.36 124.49 222.37 124.49C247.38 124.49 261.68 110.59 261.68 79.82V1.59H280.94V80.61C280.94 120.91 258.9 142.16 222.17 142.16C185.44 142.16 163.4 120.91 163.4 80.61H163.41ZM556.94 140.57L526.96 97.88C524.18 98.08 521.2 98.28 518.22 98.28H483.87V140.57H464.02V1.59H518.22C554.36 1.59 576.2 19.86 576.2 50.04C576.2 71.48 565.08 86.97 545.62 93.92L578.58 140.58H556.94V140.57ZM556.34 50.04C556.34 30.18 543.04 18.87 517.62 18.87H483.87V81.41H517.62C543.03 81.41 556.34 69.89 556.34 50.04ZM608.36 1.59H666.93C711.6 1.59 741.98 29.78 741.98 71.08C741.98 112.38 711.6 140.57 666.93 140.57H608.36V1.59ZM665.74 123.3C700.09 123.3 722.13 102.25 722.13 71.08C722.13 39.91 700.09 18.86 665.74 18.86H628.21V123.3H665.74ZM772.37 1.59H792.22V140.57H772.37V1.59ZM855.56 89.95L885.54 21.85L915.52 89.95L922.47 105.83L937.76 140.58H958.61L895.47 1.59H875.81L812.87 140.57H833.32L848.61 105.82M1098.8 1.59V140.57H1082.52L999.13 36.93V140.57H979.28V1.59H995.56L1078.95 105.23V1.59H1098.8ZM1228.45 71.08C1228.45 30.38 1259.82 0 1302.5 0C1345.18 0 1376.16 30.18 1376.16 71.08C1376.16 111.98 1344.79 142.16 1302.5 142.16C1260.21 142.16 1228.44 111.78 1228.44 71.08H1228.45ZM1356.31 71.08C1356.31 40.3 1333.28 17.67 1302.5 17.67C1271.72 17.67 1248.3 40.3 1248.3 71.08C1248.3 101.86 1271.33 124.49 1302.5 124.49C1333.67 124.49 1356.31 101.86 1356.31 71.08ZM1526.07 1.59V140.57H1509.79L1426.4 36.93V140.57H1406.55V1.59H1422.83L1506.22 105.23V1.59H1526.07ZM1668.64 123.3V140.57H1567.78V1.59H1665.86V18.86H1587.63V61.55H1657.32V78.43H1587.63V123.3H1668.64ZM294.21 138.98L355.17 0H374.83L435.98 138.98H414.54L364.51 24.81L314.08 138.98H294.21Z" fill="white"/>
</g>
<defs>
<clipPath id="clip0_1019_1736">
<rect width="1668.64" height="142.16" fill="white"/>
</clipPath>
</defs>
</svg>
